<svg id="Layer_1" data-name="Layer 1" xmlns="http://www.w3.org/2000/svg" viewBox="0 0 270.44 185.26"><defs><style>.cls-1{fill:#fff;}</style></defs><title>DNBlogo</title><path class="cls-1" d="M228.06,342.85q.06-46,.1-92c0-15.66-.07-31.32,0-47,0-2-.12-7.22-.12-9.36,4.77,5.49,4.08,4.63,6.28,7.41,2.74,3.24,38.64,48.83,57.94,73.25.82.82,1.62,1.89,3.87,4.13V157.59h8.46V304.07a74.67,74.67,0,0,1-5.82-6.64Q270.06,261.25,241.5,225c-1.2-1.52-2.94-3.43-4.76-5.59v4.06q0,58.23.06,116.46c0,1,.17,2,.26,3Z" transform="translate(-131.81 -157.59)"/><path class="cls-1" d="M375.79,299.49c-14.08.92-28.23.75-42.35,1.11-3,.08-4.12-1.33-4.12-4.23q0-46.69.1-93.4v-.26a3.79,3.79,0,0,1,3.78-3.79h1.38c13.45,0,24.6-.88,37.74,1.26,22.1,3.6,29.43,26.51,15.17,44.06-.39.49-.71,1-1.32,1.9,6.47,3.82,9.59,6.88,12.26,11.22,1.48,2.41,3.22,5.92,3.55,8.53a27.71,27.71,0,0,1,.08,7,41.75,41.75,0,0,1-1.2,6.74c-3,11-12.71,19.09-25.07,19.9m-37.94-47.85c0,12.9-.07,25.19.13,37.48,0,.44,0,2.81,0,2.81h2.89c11.63-.13,23.32.1,34.87-1.06,10.9-1.1,17.66-9.82,17.37-20.28a19.41,19.41,0,0,0-18.48-18.82C362.68,251.21,350.68,251.64,337.85,251.64Zm0-43.88c0,10.42-.09,21.77.16,32.38,0,.47.07,3,.07,3h2s20.08.16,29.38-.25c10.37-.46,15.63-6,16.38-16.33.7-9.73-3.78-16.68-13.95-17.8C360.91,207.56,349.73,207.76,337.84,207.76Z" transform="translate(-131.81 -157.59)"/><path class="cls-1" d="M131.83,202.79a3.52,3.52,0,0,1,3.78-3.58l.3,0c11.63.11,22.48-.43,34,.85,19,2.13,30.12,14,35.09,32,4.2,15.22,3.75,30.24-3.08,44.63-7.4,15.58-20.15,23.36-37.26,23.88-9.15.27-18.33-.1-27.48.17-3.94.12-5.18-1.17-5.16-5.07.08-17-.2-34-.2-51,0-2.33.11-10.31.11-13.55C131.92,219.63,131.9,213.65,131.83,202.79Zm8.36,89.33h23.46c14.57,0,26.23-7.9,31.62-21.5,4.69-11.82,4.8-23.91,1.53-36.06-3.94-14.62-12.87-24.3-28.34-26.23-7.53-.94-15.24-.77-22.87-.77-2.2,0-4,0-5.72,0,0,0,0,3.42,0,5.63.27,20.12.25,40.25.32,60.38C140.21,279.49,140.19,285.45,140.19,292.12Z" transform="translate(-131.81 -157.59)"/></svg>